<svg xmlns="http://www.w3.org/2000/svg" viewBox="0 0 40 40"><path d="M8.87 34.5a6.377 6.377 0 01-6.37-6.371V11.871A6.377 6.377 0 018.87 5.5h22.26a6.377 6.377 0 016.37 6.371V28.13a6.377 6.377 0 01-6.37 6.371H8.87z" fill="#f5ce85"/><path d="M31.13 6A5.876 5.876 0 0137 11.87v16.26A5.876 5.876 0 0131.13 34H8.87A5.876 5.876 0 013 28.13V11.87A5.876 5.876 0 018.87 6h22.26m0-1H8.87A6.87 6.87 0 002 11.87v16.26A6.87 6.87 0 008.87 35h22.26A6.87 6.87 0 0038 28.13V11.87A6.87 6.87 0 0031.13 5z" fill="#967a44"/><path d="M37.5 23.5H29a5.5 5.5 0 00-5.5 5.5v0a5.5 5.5 0 005.5 5.5h0M2.5 23.5H11a5.5 5.5 0 015.5 5.5v0a5.5 5.5 0 01-5.5 5.5h0M37.5 16.5H27a3.5 3.5 0 01-3.5-3.5v0A3.5 3.5 0 0127 9.5h2.061M28.5 23.462V16M2.5 16.5H13a3.5 3.5 0 003.5-3.5v0A3.5 3.5 0 0013 9.5h-2.061M11.5 23.462V16" fill="none" stroke="#967a44" stroke-miterlimit="10"/></svg>